<?xml version="1.0" encoding="UTF-8"?>
<svg version="1.1" xmlns="http://www.w3.org/2000/svg" width="48" height="48">
<path d="M0 0 C0 1.65 0 3.3 0 5 C-1.98 5 -3.96 5 -6 5 C-6 8.63 -6 12.26 -6 16 C-5.34 16 -4.68 16 -4 16 C-3.773125 16.78375 -3.54625 17.5675 -3.3125 18.375 C-2.21153689 21.16056667 -2.21153689 21.16056667 0.375 22.4375 C2.93475319 23.19030487 2.93475319 23.19030487 5.1875 22.4375 C8.24315137 20.01405237 8.87530291 16.87170326 9.4140625 13.10546875 C9.48367187 12.14253906 9.55328125 11.17960938 9.625 10.1875 C9.69976563 9.21167969 9.77453125 8.23585938 9.8515625 7.23046875 C9.90054687 6.49441406 9.94953125 5.75835937 10 5 C8.02 5 6.04 5 4 5 C4.33 3.35 4.66 1.7 5 0 C8.71786298 0.50241392 10.64175008 1.04297569 13 4 C13.78436136 7.07382836 13.83383063 10.21303425 14 13.375 C14.07605469 14.22578125 14.15210937 15.0765625 14.23046875 15.953125 C14.49312445 20.51055636 14.52736477 22.32518126 11.625 26.0390625 C9 28 9 28 7 29 C6.27840576 30.64363134 5.60648579 32.31050386 5 34 C4.34 34 3.68 34 3 34 C5.14221735 39.81875853 5.14221735 39.81875853 9.9375 43.3125 C13.11794392 43.23974372 13.11794392 43.23974372 15.65625 41.13671875 C18.99377547 36.66999716 18.6334919 32.93274842 18.5625 27.5 C18.47668529 17.90195494 18.47668529 17.90195494 20.80859375 13.8828125 C23 12 23 12 26.5 11.375 C30 12 30 12 32.4375 14.25 C34 17 34 17 34 21 C35.32 21.66 36.64 22.32 38 23 C38.48339973 29.40504648 38.48339973 29.40504648 36.375 32 C33.16403572 33.35198496 31.30053834 33.00451167 28 32 C25.84497469 28.76746204 25.53143865 27.74849077 26 24 C27.375 22.1875 27.375 22.1875 29 21 C29.66 21 30.32 21 31 21 C30.21869929 18.50447516 30.21869929 18.50447516 29 16 C28.01 15.67 27.02 15.34 26 15 C25.01 15.66 24.02 16.32 23 17 C22.54112521 19.12301799 22.54112521 19.12301799 22.59375 21.578125 C22.57183594 22.49207031 22.54992188 23.40601562 22.52734375 24.34765625 C22.51832031 25.30542969 22.50929687 26.26320313 22.5 27.25 C22.38765104 38.98244138 22.38765104 38.98244138 19 44 C14.98141405 46.6790573 11.72358279 46.69610694 7 46 C4.12970131 44.20606332 2.50868362 43.01736724 1 40 C0.960008 38.00039988 0.95653201 35.99952758 1 34 C0.34 34 -0.32 34 -1 34 C-1.226875 33.236875 -1.45375 32.47375 -1.6875 31.6875 C-3.28532265 28.41576791 -4.86673322 27.72329673 -8 26 C-10.88099775 21.67850338 -10.13137354 18.05625593 -9.875 13 C-9.85179687 12.08476562 -9.82859375 11.16953125 -9.8046875 10.2265625 C-9.7634375 9.34742188 -9.7221875 8.46828125 -9.6796875 7.5625 C-9.64601074 6.75941406 -9.61233398 5.95632812 -9.57763672 5.12890625 C-8.2676058 0.30072804 -4.49530461 -0.37460872 0 0 Z M-8 18 C-7.34 19.32 -6.68 20.64 -6 22 C-6.33 20.68 -6.66 19.36 -7 18 C-7.33 18 -7.66 18 -8 18 Z M11 18 C12 20 12 20 12 20 Z M35 25 C36 28 36 28 36 28 Z M0 26 C4 27 4 27 4 27 Z M1 29 C1 29.99 1 30.98 1 32 C1.66 32 2.32 32 3 32 C3 31.01 3 30.02 3 29 C2.34 29 1.68 29 1 29 Z " fill="#3870EB" transform="translate(10,1)"/>
</svg>
