<?xml version="1.0" encoding="UTF-8"?>
<svg version="1.1" xmlns="http://www.w3.org/2000/svg" width="32" height="32">
<path d="M0 0 C0.99 0.33 1.98 0.66 3 1 C3 1.99 3 2.98 3 4 C1.68 4 0.36 4 -1 4 C-0.34 7.3 0.32 10.6 1 14 C5.47702364 15.06537205 5.47702364 15.06537205 8 15 C8.33 11.37 8.66 7.74 9 4 C7.68 4 6.36 4 5 4 C5.33 2.68 5.66 1.36 6 0 C8.475 0.99 8.475 0.99 11 2 C11.30436567 4.39574961 11.56894313 6.78544825 11.8125 9.1875 C11.90208984 9.86103516 11.99167969 10.53457031 12.08398438 11.22851562 C12.26953125 13.23046875 12.26953125 13.23046875 12 17 C9.57421875 19.85546875 9.57421875 19.85546875 7 22 C5.86693843 24.01633305 5.86693843 24.01633305 6 26 C7.35444301 27.77190909 7.35444301 27.77190909 9 29 C10.65 28.34 12.3 27.68 14 27 C14.02578125 25.96359375 14.0515625 24.9271875 14.078125 23.859375 C14.13441951 22.48954199 14.19176655 21.11975195 14.25 19.75 C14.26417969 19.06808594 14.27835938 18.38617187 14.29296875 17.68359375 C14.45986363 14.2455592 14.78040297 12.28930314 16.8828125 9.51953125 C19 8 19 8 21.625 7.9375 C24 9 24 9 25.1875 11.5 C25.455625 12.325 25.72375 13.15 26 14 C26.66 14.33 27.32 14.66 28 15 C28 16.98 28 18.96 28 21 C25.6875 22.125 25.6875 22.125 23 23 C22.01 22.34 21.02 21.68 20 21 C19.52553774 17.39408679 20.16167336 15.10217621 22 12 C20.68 11.67 19.36 11.34 18 11 C17.97873047 12.77117188 17.97873047 12.77117188 17.95703125 14.578125 C17.91012371 16.13545542 17.86187635 17.6927459 17.8125 19.25 C17.80669922 20.02730469 17.80089844 20.80460937 17.79492188 21.60546875 C17.63644269 25.72592765 17.53316053 27.42351465 14.64453125 30.546875 C12 32 12 32 8.875 32 C5.48005544 30.81914972 4.72002857 30.11243266 3 27 C2.525625 25.824375 2.05125 24.64875 1.5625 23.4375 C0.37339819 19.94982204 0.37339819 19.94982204 -2.1015625 18.7578125 C-4 17 -4 17 -4.27734375 13.49609375 C-4.18580491 12.14158429 -4.07170032 10.78844985 -3.9375 9.4375 C-3.89689453 8.75236328 -3.85628906 8.06722656 -3.81445312 7.36132812 C-3.65234375 5.37109375 -3.65234375 5.37109375 -3 2 C-2.01 1.34 -1.02 0.68 0 0 Z " fill="#376FEB" transform="translate(4,0)"/>
</svg>
